<?xml version="1.0" encoding="utf-8"?>
<!-- Generator: Adobe Illustrator 19.2.1, SVG Export Plug-In . SVG Version: 6.00 Build 0)  -->
<svg version="1.1" id="layer" xmlns="http://www.w3.org/2000/svg" xmlns:xlink="http://www.w3.org/1999/xlink" x="0px" y="0px"
	 viewBox="0 0 652 652" style="enable-background:new 0 0 652 652;" xml:space="preserve">
<style type="text/css">
	.st0{fill:#77CAEF;}
	.st1{fill:#DCF1FA;}
	.st2{fill:#BAE5F7;}
	.st3{fill:#99D6F2;}
	.st4{fill:#55BDEC;}
</style>
<g>
	<path class="st0" d="M617.1,344l7.8,1.4c3.3-14.1,2.4-28.7-2.5-42.4l-7.6,2.4C619.3,317.9,620.1,331.2,617.1,344z"/>
	<path class="st1" d="M553.7,256.6l1.7-7.1c-15.5-2.7-31.6-1.6-46.6,3.1l2.5,6.9C524.9,255.1,539.5,254.2,553.7,256.6z"/>
	<path class="st2" d="M555.3,249.5l-1.7,7.1c14,2.4,27,8.2,37.9,16.8l5.4-5.5C585,258.5,570.6,252.1,555.3,249.5z"/>
	<path class="st3" d="M614.8,305.5l7.6-2.4c-5-13.7-13.7-25.8-25.4-35.1l-5.4,5.5C602.3,281.9,610.3,293,614.8,305.5z"/>
	<path class="st4" d="M597.9,378.9l6,4.8c10.4-10.8,17.7-23.9,21.1-38.2l-7.8-1.4C614,357,607.4,369.1,597.9,378.9z"/>
	<path class="st3" d="M555.2,271.6c9.5,2.3,18.4,6.6,26,12.7l3.2-3.3c-9.5-7.5-20.8-12.5-32.9-14.6l-1,4.3
		C552,270.9,553.6,271.2,555.2,271.6z"/>
	<path class="st0" d="M599.8,310.2l4.6-1.5c-3.9-10.8-10.9-20.4-20.2-27.8l-3.2,3.3C589.7,291.2,596.1,300.1,599.8,310.2z"/>
	<path class="st4" d="M601.5,341.3l4.9,0.9c2.6-11.1,1.9-22.7-2-33.5l-4.7,1.5C603.3,320.2,604,331,601.5,341.3z"/>
	<path class="st2" d="M550.4,270.7l1-4.3c-12.3-2.1-25-1.3-36.8,2.5l1.5,4.1C527.2,269.5,539,268.7,550.4,270.7z"/>
	<path class="st1" d="M516.1,273l-1.5-4.1c-11.8,3.7-22.5,10.2-30.9,18.9l3.6,2.9C495.2,282.6,505.1,276.5,516.1,273z"/>
	<path class="st0" d="M551.2,284.2c7.5,1.8,14.4,5.2,20.3,9.9l2.5-2.6c-7.4-5.8-16.3-9.7-25.7-11.3l-0.8,3.3
		C548.7,283.7,550,283.9,551.2,284.2z"/>
	<path class="st2" d="M520.5,285.3l-1.2-3.2c-9.3,2.9-17.6,8-24.2,14.8l2.9,2.3C504.2,292.8,511.9,288,520.5,285.3z"/>
	<path class="st1" d="M498,299.1l-2.9-2.3c-6.5,6.7-11,14.9-13.1,23.7l3.9,0.7c0.3-1.2,0.6-2.4,1-3.6
		C489.1,310.8,492.9,304.4,498,299.1z"/>
	<path class="st3" d="M547.5,283.4l0.8-3.3c-9.7-1.7-19.6-1-28.9,2l1.2,3.2C529.2,282.5,538.5,281.9,547.5,283.4z"/>
	<path class="st4" d="M586.2,314.5l3.6-1.2c-3.1-8.5-8.5-16-15.8-21.8l-2.5,2.6C578.3,299.6,583.3,306.6,586.2,314.5z"/>
</g>
<path d="M94.5,326.1h16.3v76.6H99.9l0-62.9h-0.2l-27.2,62.9h-7.3L38,339.7h-0.2v62.9H26.9l0-76.6h16.3l25.6,58h0.5L94.5,326.1z
	 M165.3,372.8c-0.2-8.6-5.2-15-15.6-15c-8.9-0.1-16.3,6.6-16.7,15H165.3z M176.3,377.1v3.4H133c0,9.1,8.7,15,18.2,15
	c6.2,0,10.8-3,14.8-7.7l7.7,5.6c-5.7,7-13.6,10.5-23.9,10.5c-17,0-27.7-11.6-27.7-27c0-15.4,11.7-26.9,27.9-26.9
	C169,350.1,176.3,364,176.3,377.1z M229.5,377c0-10.4-6.7-17.8-17.7-17.8c-11,0-17.8,7.5-17.8,17.8c0,10.4,6.8,17.9,17.8,17.9
	C222.6,394.9,229.5,387.4,229.5,377z M239.8,326.1v76.7h-29.3c-16.7,0-27.4-10.4-27.4-25.7c0-15.3,10.7-26.9,27.4-26.9
	c7.4-0.2,14.4,3,18.8,8.6h0.2v-32.7H239.8z M253.1,402.7h10.2v-51.3h-10.2V402.7z M311.4,378.1h-5.5c-9.6,0-21.5,1.7-21.5,9.9
	c0,5.8,4.6,8.3,11.6,8.3c11.4,0,15.4-8.1,15.4-15V378.1z M320.9,367.2v35.5h-28.1c-10,0-18.7-4.1-18.7-14.1
	c0-13.2,13.3-17.7,29.7-17.7h7.5v-2.1c0-5.2-4.1-10.7-12.9-10.7c-7.8,0-11.6,3.1-15.4,5.8l-6.1-6.2c5.9-5,13.5-7.7,21.4-7.6
	C314.3,350.1,320.9,358.3,320.9,367.2z M464.1,378.1h-5.5c-9.7,0-21.5,1.7-21.5,9.9c0,5.8,4.5,8.3,11.6,8.3c11.4,0,15.4-8.1,15.4-15
	V378.1z M473.7,367.2v35.5h-28.1c-10,0-18.6-4.1-18.6-14.1c0-13.2,13.3-17.7,29.7-17.7h7.5v-2.1c0-5.2-4.1-10.7-12.8-10.7
	c-7.8,0-11.6,3.1-15.4,5.8l-6.1-6.2c5.9-5,13.5-7.7,21.4-7.6C467,350.1,473.7,358.3,473.7,367.2z M377.1,384.1h-0.5l-25.6-58h-16.3
	v76.6h10.9v-62.9h0.2l27.2,62.9h7.3l27.2-62.9h0.2v62.9h10.9v-76.6h-16.2L377.1,384.1z M503.6,383.1v-23.3h14.7v-8.4h-14.7V337
	h-10.2v14.4h-11.8v8.4h11.8v26.7c0,8.2,0.2,17.4,16,17.4c3.2,0,6.3-0.6,9.2-1.7v-8.9c-2.3,1.1-4.8,1.6-7.3,1.5
	C503.6,394.9,503.6,388.8,503.6,383.1z M556.9,350.1h-17.7l-0.3-24h-10.3v76.6h10.3v-26.4c0-11.9,6.5-17.2,15-17.2
	c6.5,0,12.3,3.6,12.3,13.2v30.4h10.2v-33C576.4,356.1,567.3,350.1,556.9,350.1z M253.1,343.2h10.2v-9.7h-10.2V343.2z"/>
</svg>
