<?xml version="1.0" encoding="utf-8"?>
<!-- Generator: Adobe Illustrator 16.0.0, SVG Export Plug-In . SVG Version: 6.00 Build 0)  -->
<!DOCTYPE svg PUBLIC "-//W3C//DTD SVG 1.1//EN" "http://www.w3.org/Graphics/SVG/1.1/DTD/svg11.dtd">
<svg version="1.1" id="Layer_1" xmlns="http://www.w3.org/2000/svg" xmlns:xlink="http://www.w3.org/1999/xlink" x="0px" y="0px"
	 width="995px" height="290px" viewBox="0 0 995 290" enable-background="new 0 0 995 290" xml:space="preserve">
<g>
	<path fill="#55ACEE" d="M232.866,220.273h-38.34v-87.898c0-1.868,0-4.674-0.936-8.414c-0.935-2.805-1.871-6.547-3.74-9.352
		c-1.87-2.806-4.676-5.612-8.416-7.479c-3.741-1.871-8.417-2.808-14.961-2.808c-8.417,0-15.897,2.808-21.509,7.481
		c-5.609,5.61-8.415,12.155-8.415,20.571v87.898H98.21v-87.898c0-1.87,0-4.674-0.936-8.416c-0.936-2.805-1.87-6.545-3.74-9.352
		c-1.871-2.806-4.676-5.61-8.416-7.479c-3.74-1.871-8.416-2.806-14.962-2.806c-8.415,0-15.897,2.806-21.507,7.479
		c-5.61,5.612-8.416,12.157-8.416,20.571v87.9H1.895V133.31c0-9.351,1.871-18.702,4.676-26.182
		c3.74-9.353,7.481-15.897,14.026-22.444c5.609-5.609,13.091-11.221,21.506-14.026c8.416-3.741,17.769-4.674,28.054-4.674
		s19.638,1.869,28.054,5.609s14.963,9.35,20.572,15.896c5.609-6.547,12.156-12.156,20.571-15.896
		c8.416-3.74,16.832-5.609,27.119-5.609c10.284,0,19.637,1.869,28.054,4.674c8.416,3.74,14.962,7.479,21.507,14.026
		c5.611,5.61,10.286,13.092,13.091,21.507c2.807,8.417,4.677,16.833,4.677,27.119v86.964H232.866L232.866,220.273z M319.83,65.985
		c10.287,0,20.573,1.869,29.924,5.609c9.352,3.74,16.831,9.352,24.313,16.831c6.545,7.481,12.156,15.896,15.896,25.248
		s5.609,20.573,5.609,31.795c0,11.22-1.869,21.506-5.609,30.859c-3.74,9.351-9.352,17.767-15.896,25.246
		c-7.481,6.547-15.896,12.156-25.248,15.897c-9.351,3.739-18.703,5.609-29.924,5.609c-10.285,0-20.571-1.87-29.924-5.609
		c-9.352-3.741-16.831-9.351-24.312-16.831c-6.546-6.546-12.157-14.962-15.897-25.249c-3.74-9.354-5.609-19.636-5.609-30.855
		c0-11.223,1.869-21.509,5.609-31.795c3.74-9.352,9.352-17.767,15.897-25.248s14.96-13.092,24.312-16.831
		C299.258,67.854,308.609,65.985,319.83,65.985 M319.83,188.481c4.676,0,10.287-0.934,14.026-2.803
		c4.677-1.871,8.416-4.678,12.156-8.418c3.741-3.739,6.546-8.416,8.417-14.025c1.869-5.609,2.806-11.22,2.806-17.767
		s-0.937-12.157-2.806-17.768c-1.871-5.61-4.676-10.283-8.417-14.025c-3.74-3.741-7.479-6.546-12.156-9.352
		c-4.675-1.87-9.352-2.805-14.026-2.805s-10.284,0.935-14.962,2.805c-4.676,1.87-8.416,5.61-12.156,9.352
		c-3.741,3.742-5.611,8.417-7.481,14.025c-1.87,5.61-2.805,11.223-2.805,17.768c0,6.547,0.936,12.157,2.805,17.767
		c1.87,5.609,4.676,9.35,7.481,14.025c3.74,3.74,7.48,6.547,12.156,8.418C309.546,186.615,314.219,188.481,319.83,188.481"/>
	<path fill="#4D4D4D" d="M461.031,182.875h22.444c5.609,0,10.285-0.937,15.896-2.807c4.676-1.87,9.353-4.677,12.155-8.416
		c3.74-3.74,6.547-7.48,8.417-12.157s2.807-10.286,2.807-15.896c0-5.611-0.937-11.222-2.807-15.897s-4.677-9.351-8.417-13.092
		c-3.739-3.74-7.479-6.547-12.155-8.417s-9.351-2.807-14.961-2.807s-10.286,0.937-14.961,3.742
		c-4.676,1.869-8.417,5.61-12.157,9.351c-3.741,3.742-6.547,8.415-8.416,13.092c-1.87,4.677-2.807,10.286-2.807,15.896v142.136
		h-38.338V145.469c0-11.222,1.869-21.506,5.609-30.857c3.741-9.353,9.353-17.769,15.898-25.248
		c6.545-7.482,14.963-13.092,24.312-16.833c9.352-3.74,19.639-6.545,30.859-6.545s21.507,1.869,30.856,6.545
		c9.354,3.741,17.766,10.286,24.313,16.833c6.547,7.479,12.157,14.959,15.896,25.248c3.74,9.352,5.61,19.636,5.61,29.923
		c0.077,19.996-7.252,39.315-20.569,54.233c-6.547,6.547-14.026,12.157-23.38,15.896c-9.35,3.739-18.701,5.609-28.987,5.609h-27.118
		V182.875z M703.225,182.875c-2.804,8.413-7.48,14.96-14.027,21.507c-5.609,5.605-13.094,11.219-21.506,14.021
		c-8.417,3.74-17.767,4.678-28.054,4.678c-10.286,0-19.64-1.87-28.057-4.678c-8.412-3.739-14.959-7.479-21.506-14.021
		c-5.609-5.614-10.286-13.094-13.094-21.507c-2.803-8.416-4.672-16.837-4.672-27.119V69.725h38.339v87.901
		c0,1.869,0,4.677,0.933,8.412c0.938,2.807,1.875,6.547,3.744,9.354c1.87,2.807,4.673,5.613,8.413,7.483
		c3.739,1.87,8.416,2.804,14.963,2.804c8.417,0,15.896-2.804,20.573-8.418c5.61-5.608,8.417-12.155,8.417-20.568V69.727h38.339
		v86.966C707.899,166.038,706.964,174.459,703.225,182.875 M805.152,69.725c10.287,0,19.636,1.87,28.986,5.61
		c9.354,3.741,16.829,9.351,23.38,15.897c6.546,6.545,11.22,14.962,14.959,24.313s5.609,18.701,5.609,29.923
		c0,10.287-1.87,20.569-5.609,29.923c-3.739,9.35-9.351,17.767-15.896,25.245c-6.542,7.484-14.964,13.094-24.313,16.835
		c-9.35,3.739-19.637,6.547-30.856,6.547c-11.224,0-21.51-1.871-30.859-6.547c-9.35-3.741-17.766-10.288-24.313-16.835
		c-6.547-7.479-12.157-15.896-15.896-25.245c-3.74-9.354-5.609-19.636-5.609-30.857V2.397h38.339v142.137
		c0,5.607,0.933,11.222,2.804,16.831c1.869,4.673,4.676,9.35,8.416,13.094c3.739,3.739,7.479,6.546,12.156,9.349
		c4.677,1.871,9.354,2.808,14.963,2.808s10.286-0.937,14.964-2.808c4.673-1.869,8.412-4.676,12.151-8.416
		c3.741-3.739,6.547-7.479,8.418-13.089c1.874-4.677,2.807-10.287,2.807-15.899c0-5.609-0.933-10.286-2.807-14.961
		c-1.871-4.675-4.677-9.352-8.418-12.157c-3.739-4.674-8.412-7.479-13.088-9.351c-4.677-1.87-10.287-2.805-15.896-2.805h-21.511
		V69.725H805.152L805.152,69.725z"/>
	<path fill="#55ACEE" d="M993.105,11.747c-3.739,1.872-7.479,2.808-11.22,2.808c3.74-2.808,7.48-6.547,8.416-11.222
		c-3.739,1.869-8.416,3.739-12.155,4.675c-3.74-3.74-9.354-5.61-14.964-5.61c-11.22,0-19.636,9.352-19.636,19.639
		c0,1.867,0,2.805,0.934,4.674c-16.831-0.935-30.86-8.416-41.146-20.572c-1.87,2.807-2.804,6.546-2.804,10.286
		c0,6.545,3.739,13.092,8.417,16.831c-2.808,0-6.547-0.935-9.354-2.805c0,9.352,6.547,17.767,15.896,19.637
		c-1.869,0-3.739,0.935-5.608,0.935h-3.741c2.808,7.482,10.287,13.092,18.704,14.026c-6.547,5.612-14.963,8.417-24.313,8.417h-4.677
		c8.416,5.611,18.702,8.416,29.923,8.416c36.469,0,56.105-29.924,56.105-56.107v-2.805
		C987.496,19.229,990.302,15.489,993.105,11.747"/>
</g>
</svg>
