<?xml version="1.0" encoding="utf-8"?>
<!-- Generator: Adobe Illustrator 24.2.1, SVG Export Plug-In . SVG Version: 6.00 Build 0)  -->
<svg version="1.1" id="Layer_1" xmlns="http://www.w3.org/2000/svg" xmlns:xlink="http://www.w3.org/1999/xlink" x="0px" y="0px"
	 width="985.6px" height="382.9px" viewBox="0 0 985.6 382.9" style="enable-background:new 0 0 985.6 382.9;" xml:space="preserve"
	>
<style type="text/css">
	.st0{fill:#FFFFFF;}
	.st1{fill:#FCB813;}
	.st2{fill:#004B8D;}
</style>
<path class="st0" d="M62.9,271.4c61.2,0,145.8,34.5,207.2,34.5c43.8,0,86.6-11.7,110.9-28.9c1.7-10.3,2.6-20.7,2.6-31.1
	c0-102.8-83.4-186.2-186.2-186.2S11.3,143,11.3,245.8c0,10.3,0.9,20.6,2.5,30.7C20.6,275.3,43.4,271.4,62.9,271.4z"/>
<polygon class="st1" points="911.9,307.9 481.3,307.9 481.3,313.1 911.9,313.1 911.9,307.9 "/>
<path class="st2" d="M503.1,164.4c0,4.2,0.3,10.3,2.8,12.9s6.4,3.3,10.4,3.3c11.7,0,20.6-4.7,20.6-16.5c0-9.3-5.2-20.2-26.1-20.2
	c-7.1,0-7.6,0.7-7.6,3.1L503.1,164.4L503.1,164.4z M503.1,137c0,3.3,0.1,3.6,6.8,3.3c13.4-0.5,20.6-4,20.6-15.1
	c0-11.6-9.6-16-19.5-16c-2-0.1-4.1,0.1-6,0.7c-1.3,0.4-1.8,1-1.8,3.1L503.1,137L503.1,137z M492.3,121.3c0-8.7-0.6-11.1-6.5-11.5
	l-4.1-0.3c-0.7-0.5-0.5-2.9,0.1-3c7.1-0.6,16-1,28.2-1c8.3,0,16.1,0.6,22,3.3c5.6,2.5,10,7.2,10,14.8c0,8.5-5.5,12.9-13.4,16.2
	c0,1.2,1,1.5,2.5,1.8c7.1,1.2,17.6,7.1,17.6,19.7c0,13.7-11.3,22.9-34.9,22.9c-3.8,0-10.2-0.4-15.7-0.4c-5.8,0-10.2,0.2-15.1,0.4
	c-0.8-0.4-1-2.2-0.3-2.9l2.4-0.4c7-1.1,7.2-2.4,7.2-14.8L492.3,121.3L492.3,121.3z"/>
<path class="st2" d="M639.8,132.9c0-10.7-0.2-12.4-6.8-12.9l-2.8-0.2c-0.7-0.4-0.5-2.2,0.2-2.5c5.6,0.2,9.4,0.3,14.1,0.3
	c4.5,0,8.3-0.1,13.9-0.3c0.7,0.3,0.9,2.1,0.2,2.5l-2.8,0.2c-6.6,0.5-6.8,2.2-6.8,12.9v35.9c0,10.7,0.2,12.1,6.8,12.8l2.8,0.3
	c0.7,0.4,0.5,2.2-0.2,2.5c-5.6-0.2-9.4-0.3-13.9-0.3c-4.7,0-8.5,0.1-14.1,0.3c-0.7-0.6-0.8-1.8-0.2-2.5l2.8-0.3
	c6.6-0.7,6.8-2.1,6.8-12.8V132.9z"/>
<path class="st2" d="M702,169c0,10.6,0.2,12.1,6.3,12.6l3.4,0.3c0.6,0.4,0.4,2.2-0.2,2.5c-6-0.2-9.5-0.3-13.8-0.3s-7.9,0.1-14.6,0.3
	c-0.7-0.6-0.7-1.7-0.1-2.4c0,0,0.1-0.1,0.1-0.1l3.8-0.3c6-0.5,6.5-2,6.5-12.6v-45.1c0-3.1,0-3.2-3.2-3.2h-5.8
	c-4.5,0-10.3,0.2-12.9,2.5c-2.1,1.9-3.7,4.3-4.7,7c-1,0.5-2.1,0.2-2.7-0.7c1.7-4.9,3-9.9,4-15c0.6-0.3,1.4-0.3,2,0
	c0.6,3.2,4.1,3.1,8.9,3.1h42.5c5.7,0,6.6-0.2,8.2-2.8c0.5-0.2,1.7-0.1,1.9,0.3c-1.2,5-1.7,10.2-1.6,15.3c-0.4,0.8-2.2,0.8-2.7,0.2
	c-0.3-2.5-1-6.3-2.6-7.4c-2.4-1.7-6.4-2.5-12.2-2.5H705c-3.2,0-3,0.1-3,3.4V169z"/>
<path class="st2" d="M746.9,132.9c0-10.7-0.2-12.4-6.8-12.9l-2.8-0.2c-0.7-0.4-0.5-2.2,0.2-2.5c5.6,0.2,9.4,0.3,14.1,0.3
	c4.5,0,8.3-0.1,13.9-0.3c0.7,0.3,0.9,2.1,0.2,2.5L763,120c-6.6,0.5-6.8,2.2-6.8,12.9v35.9c0,10.7,0.2,12.1,6.8,12.8l2.8,0.3
	c0.7,0.4,0.5,2.2-0.2,2.5c-5.6-0.2-9.4-0.3-13.9-0.3c-4.7,0-8.5,0.1-14.1,0.3c-0.7-0.6-0.8-1.8-0.2-2.5l2.8-0.3
	c6.6-0.7,6.8-2.1,6.8-12.8L746.9,132.9L746.9,132.9z"/>
<path class="st2" d="M797.1,185.5c-10,0-16.3-2.6-18.6-3.7c-1.4-2.2-3-9.4-3.2-14.1c0.6-0.7,2.4-0.9,2.8-0.3c1.8,5.1,6.7,15,20.5,15
	c10,0,14.9-5.6,14.9-11.6c0-4.4-1.1-9.4-9.8-14.1l-11.3-6.2c-6-3.3-12.9-9.1-12.9-17.4c0-9.6,8.8-17.3,24.3-17.3
	c3.7,0.1,7.4,0.5,11.1,1.3c1.4,0.4,2.8,0.6,4.2,0.6c1.4,4,2.1,8.1,2.1,12.3c-0.5,0.6-2.4,0.9-3,0.3c-1.5-4.8-4.8-11.4-16.2-11.4
	c-11.7,0-14.2,6.6-14.2,11.2c0,5.9,5.7,10.1,10.1,12.4l9.5,5c7.5,3.9,14.9,9.8,14.9,19.4C822.5,177.9,812.6,185.5,797.1,185.5
	L797.1,185.5z"/>
<path class="st2" d="M857,151.6c-5.2,0-5.4,0.2-5.4,3.2V169c0,10.6,0.5,12,6.6,12.6l3.1,0.3c0.7,0.4,0.4,2.2-0.2,2.5
	c-5.9-0.2-9.5-0.3-13.8-0.3c-4.7,0-8.4,0.2-12.6,0.3c-0.7-0.7-0.8-1.8-0.2-2.5l1.8-0.3c6.1-1,6.3-2,6.3-12.6v-36.3
	c0-10.6-0.8-12.3-6.4-12.7l-2.8-0.2c-0.7-0.4-0.4-2.2,0.2-2.5c5.3,0.1,9,0.3,13.7,0.3c4.2,0,7.9-0.1,12.6-0.3
	c0.7,0.3,0.9,2.1,0.2,2.5l-2.1,0.2c-6.3,0.6-6.5,2.1-6.5,12.7v11.6c0,3.1,0.2,3.2,5.4,3.2h31c5.2,0,5.4-0.1,5.4-3.2v-11.6
	c0-10.6-0.2-12.1-6.6-12.7l-2.1-0.2c-0.7-0.4-0.4-2.2,0.2-2.5c5,0.2,8.7,0.3,13.1,0.3c4.2,0,7.9-0.1,12.8-0.3
	c0.7,0.3,0.9,2.1,0.2,2.5L909,120c-6.3,0.6-6.5,2.1-6.5,12.7V169c0,10.6,0.2,11.9,6.5,12.6l2.6,0.3c0.7,0.4,0.4,2.2-0.2,2.5
	c-5.2-0.2-8.9-0.3-13.1-0.3c-4.5,0-8.4,0.1-13.1,0.3c-0.7-0.7-0.8-1.8-0.2-2.5l2.1-0.3c6.6-1,6.6-2,6.6-12.6v-14.2
	c0-3-0.2-3.2-5.4-3.2H857z"/>
<path class="st2" d="M430.2,206.6c8.9-7,20.3-10.4,33-10.4c7.3,0.1,14.6,1.1,21.6,2.9c1.1,0.4,2.3,0.5,3.4,0.5
	c0.1,2.8,0.7,10.5,1.7,17.9c-0.9,0.9-2.3,1-3.3,0.2c-1.8-8.3-7.3-17.8-25.1-17.8c-18.7,0-34.6,11.8-34.6,37
	c0,25.6,16.3,39.7,36.3,39.7c15.8,0,22.7-10.2,25.5-17.4c1-0.6,2.4-0.4,3.2,0.5c-0.9,6.3-4,14.4-5.9,16.7c-1.5,0.3-2.9,0.7-4.3,1.2
	c-6.3,1.8-12.8,2.7-19.3,2.8c-11,0-21.5-2.2-30.4-8.2c-9.8-6.7-17.4-17.8-17.4-33.5C414.6,226.3,420.3,214.4,430.2,206.6
	L430.2,206.6z"/>
<path class="st2" d="M560.9,248.2c0-16.6-7.7-34.6-28-34.6c-11,0-25.3,7.2-25.3,29.3c0,14.9,7.6,34.3,28.5,34.3
	C548.8,277.1,560.9,268.1,560.9,248.2L560.9,248.2z M497,246.1c0-20.2,15.9-35.6,37.7-35.6c24.5,0,36.8,16.9,36.8,34.6
	c0,20.4-16.3,35.2-36.8,35.2C511.2,280.2,497,264.2,497,246.1L497,246.1z"/>
<path class="st2" d="M691,237.4c0-6.2-0.2-17.9-2-20.9c-0.8-1.2-2.7-1.9-5.3-2.1l-2.7-0.2c-0.6-0.7-0.5-1.8,0.2-2.4
	c4.1,0.2,8,0.3,12.2,0.3c4.5,0,7.4-0.1,11.2-0.3c0.7,0.6,0.9,1.6,0.3,2.3c0,0,0,0.1-0.1,0.1l-2.6,0.2c-2.7,0.2-4.7,1.1-5.3,2.4
	c-1.5,3.3-1.5,14.9-1.5,20.6v11.4c0,8.8-1.5,18.1-7.5,24.1c-4.6,4.7-12.5,7.4-20.4,7.4c-7.4,0-14.8-1.3-20-5.5
	c-5.7-4.4-8.3-11.8-8.3-23.8v-23.8c0-10.5-0.2-12.2-6.4-12.7l-2.7-0.2c-0.6-0.4-0.4-2.1,0.2-2.4c5.3,0.2,9,0.3,13.3,0.3
	s7.9-0.1,13.2-0.3c0.6,0.3,0.9,2,0.2,2.4l-2.6,0.2c-6.2,0.5-6.4,2.2-6.4,12.7v21.8c0,16.2,5.3,26.9,21.7,26.9
	c15.5,0,21.4-11.5,21.4-26.8L691,237.4L691,237.4z"/>
<path class="st2" d="M825,262c0,3.7,0.2,8.9,2.5,11.1s5.8,2.9,9.3,2.9c10.5,0,18.6-4.1,18.6-14.3c0-8.1-4.7-17.4-23.5-17.4
	c-6.4,0-6.9,0.6-6.9,2.6V262z M825,238.4c0,2.9,0.1,3.1,6.2,2.9c12.1-0.4,18.6-3.5,18.6-13.1c0-10-8.6-13.8-17.6-13.8
	c-1.8-0.1-3.7,0.1-5.4,0.6c-1.2,0.3-1.7,0.8-1.7,2.6L825,238.4L825,238.4z M815.3,224.8c0-7.5-0.5-9.5-5.8-9.9l-3.8-0.4
	c-0.4-0.4-0.7-2.4,0.1-2.5c6.4-0.5,14.4-0.8,25.4-0.8c7.4,0,14.5,0.5,19.9,2.9c5.1,2.1,9,6.2,9,12.7c0,7.3-5,11.1-12.1,14
	c0,1,0.9,1.3,2.2,1.5c6.4,1,15.8,6.1,15.8,17c0,11.8-10.2,19.8-31.5,19.8c-3.4,0-9.2-0.3-14.2-0.3c-5.2,0-9.2,0.2-13.6,0.3
	c-0.8-0.6-0.9-1.7-0.3-2.5c0,0,0,0,0,0l2.1-0.3c6.3-0.9,6.5-2,6.5-12.7L815.3,224.8L815.3,224.8z"/>
<path class="st2" d="M581.9,148.8c-2,0-6.1,0.8-6.1-1.9v-19.4c0-7.6,0.2-8.7,9.3-8.7c10.6,0,17.2,5.4,17.2,15.4
	c0.2,4.4-1.9,8.5-5.5,11C592.3,148.3,587.4,148.8,581.9,148.8L581.9,148.8z M622.7,182l-2.8-0.2c-0.6-0.1-1.1-0.1-1.5-0.2
	c-4.1-0.7-5.7-4.4-7.7-7.8l-9.7-16.9c-1.7-2.8-3.5-6.6-7.3-7.1c9.9-1.2,18.9-6.9,18.9-16.8c0-11.4-11.2-16.4-22.6-16.4
	c-6.8,0-13,0.2-20,0.2c-3.8,0-8.4-0.2-12.2-0.2c-2.1,0-2.2,0.4-2.2,1.6c0,1.8,0.7,1.3,3,1.4c8.1,0.4,7.8,2,7.8,8.9v44.2
	c0,6.3,0.5,8.2-6.1,8.8l-1.6,0.2l-2.8,0.3c-0.6,0.8-0.5,1.9,0.2,2.5l4.2-0.2c3.7-0.1,7.3-0.4,11-0.4s7.2,0.3,10.9,0.4l0,0l4.2,0.1
	c0.7-0.6,0.9-1.8,0.2-2.5l-2.8-0.3l-1.6-0.1c-6.7-0.5-6.3-2.4-6.3-8.8V156c0-1-0.1-3.6,0.6-4.3s1.7-0.5,2.6-0.5
	c9.1,0,9,0.9,13.3,8.4l11.7,21.1c1,1.6,1.7,3.7,4.1,3.7h10.2l4.1,0.1C623.2,183.8,623.3,182.7,622.7,182L622.7,182z"/>
<path class="st2" d="M584.1,227.4c0-10.6-0.2-12.2-7.2-12.7l-2.8-0.2c-0.7-0.4-0.4-2.2,0.2-2.5c6.2,0.2,10,0.3,14.4,0.3
	s8.1-0.1,13.7-0.3c0.7,0.3,0.9,2.1,0.2,2.5l-2.7,0.2c-6.5,0.5-6.8,2.1-6.8,12.7v35.1c0,6.4,0.3,9,2.3,10.9c1.2,1.1,3.3,2.3,12.1,2.3
	c9.4,0,11.8-0.4,13.5-1.3c2.2-1.2,5.1-4.8,7.3-10c0.7-0.5,2.8-0.1,2.8,0.6c0,1.1-3.1,11.4-4.7,14.1c-5.7-0.2-16.2-0.3-27.6-0.3
	h-10.2c-4.7,0-8.2,0.1-14.4,0.3c-0.7-0.6-0.8-1.8-0.2-2.5l3.3-0.3c6.4-0.6,6.7-2,6.7-12.6V227.4z"/>
<path class="st2" d="M881.4,227.6c0-10.7-0.2-12.4-6.7-12.9l-2.7-0.2c-0.7-0.4-0.4-2.2,0.2-2.5c5.4,0.2,9.2,0.3,13.7,0.3
	c4.4,0,8.1-0.1,13.5-0.3c0.7,0.3,0.9,2.1,0.2,2.5l-2.7,0.2c-6.4,0.5-6.7,2.2-6.7,12.9v35.9c0,10.7,0.2,12.1,6.7,12.8l2.7,0.3
	c0.7,0.4,0.4,2.2-0.2,2.5c-5.5-0.2-9.2-0.3-13.5-0.3c-4.6,0-8.3,0.1-13.7,0.3c-0.7-0.6-0.8-1.8-0.2-2.5l2.7-0.3
	c6.4-0.7,6.7-2.1,6.7-12.8V227.6z"/>
<path class="st2" d="M794.3,276.3l-1.6-0.1c-1.1,0-2.2-0.4-3-1.2c-1.4-1.5-1.3-5.8-1.3-7.5v-44.2c0-1.9-0.5-6.1,0.9-7.6
	c0.7-0.8,2.2-0.9,3.5-1l0,0l1.5-0.1l2.8-0.2c0.7-0.4,0.5-2.2-0.2-2.5c-1.5,0.1-2.9,0-4.2,0.1h-11.9c-1.3,0-2.5,0-3.2,1.4l-24.3,50.5
	L732,215.1c-0.7-1.7-0.8-3.1-3.1-3.1h-12.3c-1.3,0-2.7,0-4.2-0.1c-0.7,0.3-0.9,2.1-0.2,2.5l2.8,0.2l1.6,0.1c4.7,0.3,4.9,1.3,4.5,6.2
	l-3.7,47.4c-0.3,4.8-0.6,7.3-5.6,7.8l-1.6,0.2l-2.8,0.3c-0.6,0.8-0.5,1.9,0.2,2.5l4.1-0.1c2.5-0.1,5.1-0.4,7.7-0.4
	c2.8,0,5.6,0.3,8.3,0.4l0,0l4.2,0.1c0.7-0.6,0.8-1.8,0.2-2.5l-2.8-0.3c-0.7,0-1.6-0.1-1.6-0.1c-7.2-0.5-7-5.6-6.6-11.8l3.4-44.1h0.8
	l23.2,54.3c0.2,0.8,0.6,2,1.8,2s1.4-1.2,1.8-1.9l26.1-55.6h0.8v48.5c0,1.9,0.2,5.9-1.8,7.4c-1,0.8-4.5,1.2-4.5,1.2
	c-0.5,0.1-1,0.1-1.5,0.2l-2.8,0.3c-0.6,0.8-0.5,1.9,0.2,2.5l4.1-0.1c3.8-0.1,7.7-0.4,11.5-0.4c2.8,0,8.2,0.3,8.2,0.3
	c1.3,0,2.8,0.2,4.3,0.2c0.7-0.6,0.8-1.8,0.2-2.5L794.3,276.3L794.3,276.3z"/>
<path class="st2" d="M946.9,251.6h-13.1c-0.5,0-4.1,0.4-4.1-0.6c0.1-0.4,0.2-0.9,0.3-1.3l7.9-19.5c0.2-0.5,1-3.2,1.9-3.2
	c0.7,0,1.6,2.8,1.8,3.2l7.8,18.2c0,0.2,0.8,1.9,0.8,2.4C950.2,252,947.6,251.6,946.9,251.6L946.9,251.6z M976.3,276.6l-0.4-0.3
	c-0.6-0.1-1.1-0.1-1.5-0.2c-4.4-1-6.1-6.2-7.7-10L944.3,213c-0.2-0.6-0.7-2-1.6-2c-1.2,0-1.5,1.5-1.9,2.3l-21.5,53
	c-0.8,2-2.8,6.9-4.2,8.4c-1.1,1-2.6,1.5-4.1,1.5l-1.8,0.2l-2.6,0.3c-0.6,0.8-0.5,1.9,0.2,2.5l4.1-0.2c2.9,0,5.9-0.4,8.8-0.4
	c2.5,0,4.9,0.3,7.4,0.4l4.2,0.1c0.7-0.6,0.8-1.8,0.2-2.5l-2.8-0.3l-1.5-0.1c-2.6-0.3-5.8-0.8-5.8-3.6c0.2-2,0.7-4,1.6-5.8l3.3-7.9
	c1.7-3.8,1-4.2,5.5-4.2h15.1c5.3,0,4.5,0,6.9,5.4l3.6,8c0.5,1.4,1.5,3.7,1.5,5.2c0,2.7-2.9,2.8-5.6,3.1l-1.7,0.1l-2.7,0.2
	c-0.6,0.8-0.5,1.9,0.2,2.5l4.1-0.2c3.2-0.1,6.3-0.4,9.4-0.4c3.9,0,7.8,0.3,11.7,0.4l0,0c1.3,0,0.2,0.1,1.7,0.1
	C976.8,278.5,976.9,277.4,976.3,276.6L976.3,276.6z"/>
<polygon class="st1" points="317.7,202.8 325.1,205.8 341.4,194.4 317.7,202.8 "/>
<path class="st1" d="M43.5,190l-19.4-6.8l1-2.4l21.8,7.3H47l2.9-1.6l1.2-0.7l-23.8-10.1l1-2.5l53,21.5l1.8-0.7l-52.6-25.6l1.2-2.4
	l55.7,25.9l0.8-0.4l-54-30.6l1.1-2.3l78,42.5c0.6-1.2,2-3.3,2.7-4.5c-18.5-17.3-38-33.6-58.3-48.8c21.2,13.9,43.2,26.6,65.8,38.1
	c1.2-1.5,2.2-2.7,3.5-4.1l-66.5-58.6L62,121l53.7,45.8L66,117l1.8-2l55.9,54l-52-57.8l2-1.8l48.1,51.6l-43.9-55.3l1.9-1.7l56.2,68.4
	c1.4-1.2,2.7-2.2,4.2-3.4c-10.6-22.9-22.5-45.2-35.6-66.8c14.4,20.7,29.9,40.6,46.5,59.6c1.6-0.9,3.3-1.8,5-2.6l-0.3-0.2l-39.4-78.7
	l2.3-1l32.7,62.6l-27.5-64.9l2.5-1.1l31.6,71l-26.6-73l2.5-0.9l25.3,65.8l-20-67.7l2.4-0.9l26.3,84l-0.1,0.2h0.1
	c1.8-0.6,3.5-1.1,5.3-1.6c-1.3-25.1-4-50.1-8-74.8c5.6,24.5,12.5,48.6,20.6,72.3c1.8-0.2,3.7-0.4,5.6-0.6l-0.1-0.1h0.2l-0.1-0.2
	l-7.1-87.7l2.6-0.1l6.9,70.3l-1.2-70.5l2.7-0.1l2.7,77.7l2.7-77.7l2.7,0.1l-1.2,70.5l6.9-70.3l2.6,0.1l-7.1,87.7l-0.1,0.2l0,0l0,0
	h0.1c1.8,0.1,3.6,0.3,5.4,0.5c8.2-23.7,15.1-47.8,20.6-72.2c-4,24.7-6.7,49.7-8,74.7c1.8,0.5,3.6,1,5.4,1.6l26.2-83.7l2.4,0.9
	l-20,67.7l25.3-65.8l2.5,0.9l-26.6,73l31.6-71l2.5,1.1l-27.5,64.9L277,79.7l2.3,1L240,159.1h0.1c1.6,0.8,3.2,1.6,4.8,2.5
	c16.5-18.9,31.9-38.7,46.2-59.3c-13,21.5-24.8,43.6-35.4,66.4c1.5,1.1,3,2.3,4.4,3.6l55.6-67.7l1.9,1.7l-43.9,55.3l48.1-51.5l2,1.8
	l-52,57.7l55.9-54l1.9,1.9l-49.8,49.9l53.7-45.8l1.8,1.8l-65.8,58l0,0c1.1,1.3,2.3,2.6,3.3,3.9c22.4-11.4,44.2-24,65.3-37.8
	c-20.2,15.1-39.5,31.3-57.9,48.5c0.8,1.4,2.1,3.7,2.9,5.1l76.9-41.9l1.1,2.3l-61.4,34.8l63.9-29.7l1.2,2.4l-59.5,29l1.1,0.4
	l60.5-24.5l1,2.5l-56.3,23.9l1.1,0.4l37.5-12.5l5.6-3.9l1.9,1.4l12.3-4.1l1,2.4l-10.7,3.8l15.4,11.8l4.9,2.8
	C361,119.3,286.4,57.7,197.5,57.7c-90.5,0-166.2,63.8-184.4,148.9l0.7-0.3l2.3-1l1.4-0.6L43.5,190L43.5,190z"/>
<path class="st2" d="M12,280.6c0,0,27.8-5.6,51-5.6c61.2,0,145.8,34.5,207.2,34.5c45,0,89-12.4,112.9-30.4
	c4.5-25.5,3.7-51.7-2.3-76.8L355.2,188l-30,21.1l-20.2-7.9c-6.8,3.5-49,31.7-49,31.7l-16.2-11.7l-17.4-3.4l-23.2-16.9l-26.6,18.2
	c0,0-29.6,17.2-30.6,17.2s-35.8-27.6-35.8-27.6l-16-16.9c-2.7,1.7-13.6,6.7-13.6,6.7l-0.6,0.1l-10.5-3.3l-12.8-6.8l-38.9,17.6
	l-0.7,0.3C7.9,231,7.5,256.1,12,280.6z"/>
</svg>
